<mxfile host="app.diagrams.net" agent="Mozilla/5.0 (Windows NT 10.0; Win64; x64) AppleWebKit/537.36 (KHTML, like Gecko) Chrome/127.0.0.0 Safari/537.36" version="24.7.7">
  <diagram name="Page-1" id="rjgmUzVay2HD0f2yZGFc">
    <mxGraphModel dx="1288" dy="889" grid="1" gridSize="10" guides="1" tooltips="1" connect="1" arrows="1" fold="1" page="1" pageScale="1" pageWidth="850" pageHeight="1100" math="0" shadow="0">
      <root>
        <mxCell id="0" />
        <mxCell id="1" parent="0" />
        <mxCell id="mpq9QR0otP3gbqjHW5Rz-4" value="" style="rounded=0;whiteSpace=wrap;html=1;" vertex="1" parent="1">
          <mxGeometry x="280" y="340" width="410" height="630" as="geometry" />
        </mxCell>
        <mxCell id="mpq9QR0otP3gbqjHW5Rz-2" value="Book Recommender System" style="text;html=1;align=center;verticalAlign=middle;resizable=0;points=[];autosize=1;strokeColor=none;fillColor=none;" vertex="1" parent="1">
          <mxGeometry x="395" y="340" width="180" height="30" as="geometry" />
        </mxCell>
        <mxCell id="mpq9QR0otP3gbqjHW5Rz-6" value="View Popular Books" style="ellipse;whiteSpace=wrap;html=1;" vertex="1" parent="1">
          <mxGeometry x="385" y="390" width="170" height="113.33" as="geometry" />
        </mxCell>
        <mxCell id="mpq9QR0otP3gbqjHW5Rz-7" value="Search Books" style="ellipse;whiteSpace=wrap;html=1;" vertex="1" parent="1">
          <mxGeometry x="385" y="540" width="170" height="113.33" as="geometry" />
        </mxCell>
        <mxCell id="mpq9QR0otP3gbqjHW5Rz-8" value="User" style="shape=umlActor;verticalLabelPosition=bottom;verticalAlign=top;html=1;" vertex="1" parent="1">
          <mxGeometry x="70" y="479" width="40" height="83" as="geometry" />
        </mxCell>
        <mxCell id="mpq9QR0otP3gbqjHW5Rz-10" value="" style="endArrow=classic;html=1;rounded=0;entryX=0;entryY=0.5;entryDx=0;entryDy=0;" edge="1" parent="1" source="mpq9QR0otP3gbqjHW5Rz-8" target="mpq9QR0otP3gbqjHW5Rz-6">
          <mxGeometry width="50" height="50" relative="1" as="geometry">
            <mxPoint x="280" y="500" as="sourcePoint" />
            <mxPoint x="330" y="450" as="targetPoint" />
          </mxGeometry>
        </mxCell>
        <mxCell id="mpq9QR0otP3gbqjHW5Rz-11" value="" style="endArrow=classic;html=1;rounded=0;entryX=0;entryY=0.5;entryDx=0;entryDy=0;" edge="1" parent="1" source="mpq9QR0otP3gbqjHW5Rz-8" target="mpq9QR0otP3gbqjHW5Rz-7">
          <mxGeometry width="50" height="50" relative="1" as="geometry">
            <mxPoint x="230" y="470" as="sourcePoint" />
            <mxPoint x="395" y="457" as="targetPoint" />
          </mxGeometry>
        </mxCell>
        <mxCell id="mpq9QR0otP3gbqjHW5Rz-12" value="" style="shape=cylinder3;whiteSpace=wrap;html=1;boundedLbl=1;backgroundOutline=1;size=15;" vertex="1" parent="1">
          <mxGeometry x="840" y="479" width="60" height="80" as="geometry" />
        </mxCell>
        <mxCell id="mpq9QR0otP3gbqjHW5Rz-13" value="Dataset" style="text;html=1;align=center;verticalAlign=middle;resizable=0;points=[];autosize=1;strokeColor=none;fillColor=none;" vertex="1" parent="1">
          <mxGeometry x="840" y="562" width="60" height="30" as="geometry" />
        </mxCell>
        <mxCell id="mpq9QR0otP3gbqjHW5Rz-14" value="" style="endArrow=classic;html=1;rounded=0;entryX=1;entryY=0.5;entryDx=0;entryDy=0;exitX=-0.033;exitY=0.423;exitDx=0;exitDy=0;exitPerimeter=0;" edge="1" parent="1" source="mpq9QR0otP3gbqjHW5Rz-12" target="mpq9QR0otP3gbqjHW5Rz-6">
          <mxGeometry width="50" height="50" relative="1" as="geometry">
            <mxPoint x="550" y="529" as="sourcePoint" />
            <mxPoint x="725" y="460" as="targetPoint" />
          </mxGeometry>
        </mxCell>
        <mxCell id="mpq9QR0otP3gbqjHW5Rz-15" value="" style="endArrow=classic;html=1;rounded=0;entryX=1;entryY=0.5;entryDx=0;entryDy=0;exitX=0;exitY=0;exitDx=0;exitDy=52.5;exitPerimeter=0;" edge="1" parent="1" source="mpq9QR0otP3gbqjHW5Rz-12" target="mpq9QR0otP3gbqjHW5Rz-7">
          <mxGeometry width="50" height="50" relative="1" as="geometry">
            <mxPoint x="758" y="526" as="sourcePoint" />
            <mxPoint x="565" y="457" as="targetPoint" />
          </mxGeometry>
        </mxCell>
        <mxCell id="mpq9QR0otP3gbqjHW5Rz-17" value="Get Recommended Book" style="ellipse;whiteSpace=wrap;html=1;" vertex="1" parent="1">
          <mxGeometry x="520" y="730" width="140" height="100" as="geometry" />
        </mxCell>
        <mxCell id="mpq9QR0otP3gbqjHW5Rz-18" value="Handle Book Not Found" style="ellipse;whiteSpace=wrap;html=1;" vertex="1" parent="1">
          <mxGeometry x="310" y="730" width="140" height="100" as="geometry" />
        </mxCell>
        <mxCell id="mpq9QR0otP3gbqjHW5Rz-19" value="" style="endArrow=classic;html=1;rounded=0;entryX=0.5;entryY=0;entryDx=0;entryDy=0;exitX=0.355;exitY=0.969;exitDx=0;exitDy=0;exitPerimeter=0;" edge="1" parent="1" source="mpq9QR0otP3gbqjHW5Rz-7" target="mpq9QR0otP3gbqjHW5Rz-18">
          <mxGeometry width="50" height="50" relative="1" as="geometry">
            <mxPoint x="220" y="541" as="sourcePoint" />
            <mxPoint x="395" y="607" as="targetPoint" />
          </mxGeometry>
        </mxCell>
        <mxCell id="mpq9QR0otP3gbqjHW5Rz-20" value="" style="endArrow=classic;html=1;rounded=0;entryX=0.5;entryY=0;entryDx=0;entryDy=0;exitX=0.731;exitY=0.934;exitDx=0;exitDy=0;exitPerimeter=0;" edge="1" parent="1" source="mpq9QR0otP3gbqjHW5Rz-7" target="mpq9QR0otP3gbqjHW5Rz-17">
          <mxGeometry width="50" height="50" relative="1" as="geometry">
            <mxPoint x="455" y="660" as="sourcePoint" />
            <mxPoint x="390" y="740" as="targetPoint" />
          </mxGeometry>
        </mxCell>
        <mxCell id="mpq9QR0otP3gbqjHW5Rz-21" value="Book not found" style="text;html=1;align=center;verticalAlign=middle;resizable=0;points=[];autosize=1;strokeColor=none;fillColor=none;" vertex="1" parent="1">
          <mxGeometry x="310" y="678" width="100" height="30" as="geometry" />
        </mxCell>
        <mxCell id="mpq9QR0otP3gbqjHW5Rz-22" value="Provide Recommendation" style="text;html=1;align=center;verticalAlign=middle;resizable=0;points=[];autosize=1;strokeColor=none;fillColor=none;" vertex="1" parent="1">
          <mxGeometry x="530" y="653.33" width="160" height="30" as="geometry" />
        </mxCell>
        <mxCell id="mpq9QR0otP3gbqjHW5Rz-23" value="Search Book" style="text;html=1;align=center;verticalAlign=middle;resizable=0;points=[];autosize=1;strokeColor=none;fillColor=none;" vertex="1" parent="1">
          <mxGeometry x="160" y="550" width="90" height="30" as="geometry" />
        </mxCell>
        <mxCell id="mpq9QR0otP3gbqjHW5Rz-24" value="Browse Popular Book" style="text;html=1;align=center;verticalAlign=middle;resizable=0;points=[];autosize=1;strokeColor=none;fillColor=none;" vertex="1" parent="1">
          <mxGeometry x="140" y="440" width="140" height="30" as="geometry" />
        </mxCell>
        <mxCell id="mpq9QR0otP3gbqjHW5Rz-25" value="Provide Popular Book Data" style="text;html=1;align=center;verticalAlign=middle;resizable=0;points=[];autosize=1;strokeColor=none;fillColor=none;" vertex="1" parent="1">
          <mxGeometry x="680" y="449" width="170" height="30" as="geometry" />
        </mxCell>
        <mxCell id="mpq9QR0otP3gbqjHW5Rz-26" value="Provide Book Data" style="text;html=1;align=center;verticalAlign=middle;resizable=0;points=[];autosize=1;strokeColor=none;fillColor=none;" vertex="1" parent="1">
          <mxGeometry x="690" y="562" width="120" height="30" as="geometry" />
        </mxCell>
      </root>
    </mxGraphModel>
  </diagram>
</mxfile>
